<svg width="125" height="14" viewBox="0 0 125 14" fill="none" xmlns="http://www.w3.org/2000/svg">
<path d="M9.214 5.044H11.39C11.016 2.358 8.959 0.811 6.324 0.828C3.162 0.811 0.816 3.106 0.816 6.982C0.816 10.858 3.128 13.17 6.324 13.17C9.163 13.17 11.067 11.317 11.39 9.022H9.214C8.925 10.433 7.769 11.215 6.324 11.232C4.386 11.215 2.975 9.753 2.992 6.982C2.975 4.279 4.369 2.749 6.358 2.766C7.803 2.749 8.959 3.582 9.214 5.044ZM14.6043 13L15.6073 10.042H20.1463L21.1323 13H23.4443L19.2283 0.964H16.5423L12.3263 13H14.6043ZM16.2023 8.274L17.8343 3.446H17.9363L19.5513 8.274H16.2023ZM24.912 13H27.054V7.9H32.086V6.064H27.054V2.8H32.596V0.964H24.912V13ZM34.4247 13H42.2787V11.198H36.5667V7.9H41.8367V6.064H36.5667V2.8H42.2447V0.964H34.4247V13ZM50.5097 13H51.9377L53.8757 6.132H54.0117L55.9837 13H57.4117L60.1317 3.99H58.6357L56.6977 10.824H56.5957L54.7257 3.99H53.1957L51.2917 10.858H51.2237L49.2857 3.99H47.7897L50.5097 13ZM61.7011 13H63.1631V3.99H61.7011V13ZM61.4291 1.542C61.4291 2.069 61.8881 2.494 62.4491 2.494C62.9931 2.494 63.4521 2.069 63.4351 1.542C63.4521 1.015 62.9931 0.59 62.4491 0.59C61.8881 0.59 61.4291 1.015 61.4291 1.542ZM69.3813 3.99H67.4773V1.814H66.0153V3.99H64.6553V5.18H66.0153V10.79C66.0323 12.371 67.2903 13.119 68.4973 13.102C68.9223 13.119 69.2792 13.085 69.4833 13.034V11.708C69.2792 11.725 68.9053 11.759 68.6333 11.742C68.0383 11.759 67.4603 11.572 67.4773 10.416V5.18H69.3813V3.99ZM72.8252 7.594C72.8082 6.03 73.8112 5.146 75.1712 5.146C76.4462 5.146 77.2282 5.962 77.2112 7.39V13H78.6732V7.254C78.6562 4.959 77.4322 3.871 75.5792 3.854C74.1682 3.871 73.3522 4.466 72.9272 5.418H72.8252V0.964H71.3632V13H72.8252V7.594ZM85.3631 13H86.8591V8.342H89.4771H89.7661L92.2651 13H94.0331L91.2961 8.053C92.8261 7.526 93.5401 6.268 93.5571 4.67C93.5401 2.545 92.2651 0.981 89.4431 0.964H85.3631V13ZM86.8591 6.982V2.29H89.3751C91.3131 2.307 92.0611 3.242 92.0611 4.67C92.0611 6.115 91.3131 6.982 89.4091 6.982H86.8591ZM95.5019 13H96.9639V3.99H95.5019V13ZM95.2299 1.542C95.2299 2.069 95.6889 2.494 96.2499 2.494C96.7939 2.494 97.2529 2.069 97.2359 1.542C97.2529 1.015 96.7939 0.59 96.2499 0.59C95.6889 0.59 95.2299 1.015 95.2299 1.542ZM98.966 13H106.038V11.674H100.938V11.606L105.902 5.112V3.99H99.136V5.282H104.032V5.384L98.966 11.912V13ZM107.665 13H114.737V11.674H109.637V11.606L114.601 5.112V3.99H107.835V5.282H112.731V5.384L107.665 11.912V13ZM120.059 13.204C122.507 13.187 124.156 11.334 124.139 8.546C124.156 5.724 122.507 3.871 120.059 3.854C117.611 3.871 115.945 5.724 115.945 8.546C115.945 11.334 117.611 13.187 120.059 13.204ZM117.373 8.546C117.373 6.744 118.223 5.129 120.059 5.146C121.878 5.129 122.728 6.744 122.711 8.546C122.728 10.331 121.878 11.912 120.059 11.912C118.223 11.912 117.373 10.331 117.373 8.546Z" fill="black"/>
</svg>
