<svg width="200" height="32" viewBox="0 0 200 32" fill="none" xmlns="http://www.w3.org/2000/svg">
<path d="M29.0114 29.3371L21.9673 7.18309L14.8842 29.3371H11.7835L3.86542 2.66284H6.94266L13.4301 24.6848L20.4196 2.66284H23.476L30.5019 24.6848L36.9529 2.66284H40.0328L32.1147 29.3371H29.0114Z" fill="black"/>
<path d="M93.1861 21.5265C93.1861 26.2525 89.2453 29.3397 84.368 29.3397H72.8966V2.66034H83.5876C88.3479 2.66034 92.2107 5.6713 92.2107 10.283C92.2107 12.4936 91.3132 14.2468 89.8306 15.5045C91.8595 16.7623 93.1861 18.8204 93.1861 21.5265ZM79.1395 8.37735V13.1034H83.5876C84.9923 13.1034 85.9677 12.1125 85.9677 10.7404C85.9677 9.3683 85.0313 8.37735 83.5876 8.37735H79.1395ZM86.9432 21.0691C86.9432 19.5827 85.9287 18.5155 84.368 18.5155H79.1395V23.6227H84.368C85.9287 23.6227 86.9432 22.5555 86.9432 21.0691Z" fill="black"/>
<path d="M117.377 23.4677V29.3346H99.7542V2.66284H105.995V23.4677H117.377Z" fill="black"/>
<path d="M131.697 2.66284V29.3371H125.405V2.66284H131.697Z" fill="black"/>
<path d="M162.761 2.66797V29.3321H158.042L146.261 14.7728V29.3321H139.969V2.66797H144.688L156.469 17.0393V2.66797H162.761Z" fill="black"/>
<path d="M64.1383 5.41209V2.66284H47.3344V29.3371H64.1383V26.5879H50.2608V17.2628V17.1866H63.8756V14.4373H50.2608V5.41209H64.1383Z" fill="black"/>
<path d="M196.876 16.0204C196.876 25.0888 191.455 30.1223 183.901 30.1223C175.421 30.1223 169.332 23.5033 169.332 15.934C169.332 8.36465 175.216 1.87775 183.155 1.87775C188.321 1.87775 192.675 4.36274 194.948 7.9022L189.985 10.6819C188.945 9.2006 186.942 7.74975 183.521 7.74975C179.159 7.74975 175.497 11.1749 175.497 15.9721C175.497 20.4517 178.413 24.2478 183.654 24.2478C187.998 24.2478 190.36 21.557 190.552 18.7162H183.344V13.759H196.788L196.873 16.0178L196.876 16.0204Z" fill="black"/>
<path d="M29.0114 29.3371L21.9673 7.18309L14.8842 29.3371H11.7835L3.86542 2.66284H6.94266L13.4301 24.6848L20.4196 2.66284H23.476L30.5019 24.6848L36.9529 2.66284H40.0328L32.1147 29.3371H29.0114Z" fill="black"/>
<path d="M93.1861 21.5265C93.1861 26.2525 89.2453 29.3397 84.368 29.3397H72.8966V2.66034H83.5876C88.3479 2.66034 92.2107 5.6713 92.2107 10.283C92.2107 12.4936 91.3132 14.2468 89.8306 15.5046C91.8595 16.7623 93.1861 18.8204 93.1861 21.5265ZM79.1395 8.37735V13.1034H83.5876C84.9923 13.1034 85.9677 12.1125 85.9677 10.7404C85.9677 9.36829 85.0313 8.37735 83.5876 8.37735H79.1395ZM86.9432 21.0691C86.9432 19.5827 85.9287 18.5155 84.368 18.5155H79.1395V23.6227H84.368C85.9287 23.6227 86.9432 22.5555 86.9432 21.0691Z" fill="black"/>
<path d="M117.377 23.4677V29.3346H99.7542V2.66284H105.995V23.4677H117.377Z" fill="black"/>
<path d="M131.697 2.66284V29.3371H125.405V2.66284H131.697Z" fill="black"/>
<path d="M162.761 2.66797V29.3321H158.042L146.261 14.7728V29.3321H139.969V2.66797H144.688L156.469 17.0393V2.66797H162.761Z" fill="black"/>
<path d="M196.876 16.0204C196.876 25.0888 191.455 30.1223 183.901 30.1223C175.421 30.1223 169.332 23.5033 169.332 15.934C169.332 8.36465 175.216 1.87775 183.155 1.87775C188.321 1.87775 192.675 4.36274 194.948 7.9022L189.985 10.6819C188.945 9.2006 186.942 7.74975 183.521 7.74975C179.159 7.74975 175.497 11.1749 175.497 15.9721C175.497 20.4517 178.413 24.2478 183.654 24.2478C187.998 24.2478 190.36 21.557 190.552 18.7162H183.344V13.759H196.788L196.873 16.0178L196.876 16.0204Z" fill="black"/>
</svg>
