<svg width="24" height="24" viewBox="0 0 24 24" fill="none" xmlns="http://www.w3.org/2000/svg">
<path d="M10.875 5.25H4.75C4.28587 5.25 3.84075 5.43437 3.51256 5.76256C3.18437 6.09075 3 6.53587 3 7V19.25C3 19.7141 3.18437 20.1592 3.51256 20.4874C3.84075 20.8156 4.28587 21 4.75 21H17C17.4641 21 17.9092 20.8156 18.2374 20.4874C18.5656 20.1592 18.75 19.7141 18.75 19.25V13.125" stroke="#646464" stroke-width="2" stroke-linecap="round" stroke-linejoin="round"/>
<path d="M17.7303 3.56098C18.0895 3.20179 18.5767 3 19.0847 3C19.5927 3 20.0798 3.20179 20.439 3.56098C20.7982 3.92018 21 4.40734 21 4.91532C21 5.42329 20.7982 5.91046 20.439 6.26965L11.8616 14.8471L8.25 15.75L9.15289 12.1384L17.7303 3.56098Z" stroke="#646464" stroke-width="2" stroke-linecap="round" stroke-linejoin="round"/>
</svg>
