<svg width="32" height="32" viewBox="0 0 32 32" fill="none" xmlns="http://www.w3.org/2000/svg">
<path d="M5 6H11.6C12.767 6 13.8861 6.46825 14.7113 7.30175C15.5364 8.13524 16 9.2657 16 10.4444V26C16 25.1159 15.6523 24.2681 15.0335 23.643C14.4146 23.0179 13.5752 22.6667 12.7 22.6667H5V6Z" stroke="#3392FF" stroke-width="2.5" stroke-linecap="round" stroke-linejoin="round"/>
<path d="M27 6H20.4C19.233 6 18.1139 6.46825 17.2887 7.30175C16.4636 8.13524 16 9.2657 16 10.4444V26C16 25.1159 16.3477 24.2681 16.9665 23.643C17.5854 23.0179 18.4248 22.6667 19.3 22.6667H27V6Z" stroke="#3392FF" stroke-width="2.5" stroke-linecap="round" stroke-linejoin="round"/>
</svg>
