<svg width="24" height="24" viewBox="0 0 24 24" fill="none" xmlns="http://www.w3.org/2000/svg">
<path d="M3.75 4.5H8.7C9.57521 4.5 10.4146 4.85119 11.0335 5.47631C11.6523 6.10143 12 6.94928 12 7.83333V19.5C12 18.837 11.7392 18.2011 11.2751 17.7322C10.8109 17.2634 10.1814 17 9.525 17H3.75V4.5Z" stroke="#646464" stroke-width="2" stroke-linecap="round" stroke-linejoin="round"/>
<path d="M20.25 4.5H15.3C14.4248 4.5 13.5854 4.85119 12.9665 5.47631C12.3477 6.10143 12 6.94928 12 7.83333V19.5C12 18.837 12.2608 18.2011 12.7249 17.7322C13.1891 17.2634 13.8186 17 14.475 17H20.25V4.5Z" stroke="#646464" stroke-width="2" stroke-linecap="round" stroke-linejoin="round"/>
</svg>
