<svg width="32" height="32" viewBox="0 0 32 32" fill="none" xmlns="http://www.w3.org/2000/svg">
<path d="M14.5 7H6.33333C5.71449 7 5.121 7.24583 4.68342 7.68342C4.24583 8.121 4 8.71449 4 9.33333V25.6667C4 26.2855 4.24583 26.879 4.68342 27.3166C5.121 27.7542 5.71449 28 6.33333 28H22.6667C23.2855 28 23.879 27.7542 24.3166 27.3166C24.7542 26.879 25 26.2855 25 25.6667V17.5" stroke="#3392FF" stroke-width="2.5" stroke-linecap="round" stroke-linejoin="round"/>
<path d="M23.6405 4.74798C24.1194 4.26906 24.7689 4 25.4462 4C26.1235 4 26.7731 4.26906 27.252 4.74798C27.7309 5.2269 28 5.87646 28 6.55376C28 7.23106 27.7309 7.88062 27.252 8.35954L15.8154 19.7961L11 21L12.2039 16.1846L23.6405 4.74798Z" stroke="#3392FF" stroke-width="2.5" stroke-linecap="round" stroke-linejoin="round"/>
</svg>
