<svg width="18" height="18" viewBox="0 0 18 18" fill="none" xmlns="http://www.w3.org/2000/svg">
<path fill-rule="evenodd" clip-rule="evenodd" d="M10.7317 11.8034L14.6783 15.75L15.75 14.6783L11.8034 10.7317C12.4666 9.8461 12.8595 8.7463 12.8595 7.55475C12.8595 4.62502 10.4845 2.25 7.55475 2.25C4.62502 2.25 2.25 4.62502 2.25 7.55475C2.25 10.4845 4.62502 12.8595 7.55475 12.8595C8.7463 12.8595 9.8461 12.4666 10.7317 11.8034ZM10.2729 10.2729L10.6028 9.83248C11.0784 9.19747 11.3595 8.41111 11.3595 7.55475C11.3595 5.45345 9.65606 3.75 7.55475 3.75C5.45345 3.75 3.75 5.45345 3.75 7.55475C3.75 9.65606 5.45345 11.3595 7.55475 11.3595C8.41111 11.3595 9.19747 11.0784 9.83248 10.6028L10.2729 10.2729Z" fill="#4B5563"/>
</svg>
